# WaveFront *.obj file (generated by CINEMA 4D)

mtllib ./IngredientVolcanicHeart.mtl

v 0.42532607913017 0.25885942578316 0
v 0.60000002384186 -0.19912262260914 0
v 0.26286596059799 0 -0.42500001192093
v -0.26286596059799 0 -0.42500001192093
v -0.42532607913017 0.25885942578316 0
v -0.60000002384186 -0.19912262260914 0
v -0.26286596059799 0 0.42500001192093
v 0.26286596059799 0 0.42500001192093
v 0 0.11161223053932 -0.14711953699589
v 0 0.08751039206982 0.14711953699589
v 0 -0.82114058732986 0
# 11 vertices

vn 0 0.95799779891968 0.28677555918694
vn 0 0.96805548667908 -0.25073611736298
vn -0.24590143561363 0.96908807754517 0.02001830935478
vn 0 0 0
vn -0.06808363646269 0.90185523033142 -0.42664009332657
vn 0.06808363646269 0.90185523033142 -0.42664009332657
vn 0.24590143561363 0.96908807754517 0.02001830935478
vn 0.09706661105156 0.91932594776154 0.38133695721626
vn -0.09706661850214 0.91932594776154 0.38133695721626
vn 0.2801342010498 -0.5104598402977 -0.8129917383194
vn 0 -0.55773115158081 -0.8300216794014
vn 0.53598153591156 -0.51700907945633 -0.66740196943283
vn -0.2801342010498 -0.5104598402977 -0.8129917383194
vn -0.53598153591156 -0.51700907945633 -0.66740196943283
vn -0.53598153591156 -0.51700907945633 0.66740196943283
vn -0.2801342010498 -0.5104598402977 0.8129917383194
vn 0 -0.55773115158081 0.8300216794014
vn 0.2801342010498 -0.5104598402977 0.8129917383194
vn 0.53598153591156 -0.51700907945633 0.66740196943283
vn 0.81026750802994 0.30903527140617 0.49795958399773
vn 0.81026750802994 0.30903527140617 -0.49795964360237
vn -0.81026750802994 0.30903527140617 -0.49795958399773
vn -0.81026750802994 0.30903527140617 0.49795958399773
# 23 normals

vt 0.69999998807907 0.307000041008 0
vt 0.60000002384186 0.1340000629425 0
vt 0.5 0.307000041008 0
vt 0 1 0
vt 0.40000000596046 0.1340000629425 0
vt 0.10000000149012 1 0
vt 0.19999998807907 0.82700002193451 0
vt 0 0.82700002193451 0
vt 0.30000001192093 1 0
vt 1 0.48000001907349 0
vt 0.80000001192093 0.48000001907349 0
vt 0.89999997615814 0.65299999713898 0
vt 0.69999998807907 0.65299999713898 0
vt 0.60000002384186 0.48000001907349 0
vt 0.30000001192093 0.65299999713898 0
vt 0.5 0.65299999713898 0
vt 0.39999997615814 0.48000001907349 0
vt 0.30000001192093 0.307000041008 0
vt 0.20000000298023 0.48000001907349 0
vt 0.10000000149012 0.65400004386902 0
vt 0.39999997615814 0.82700002193451 0
vt 0.5 1 0
vt 0.60000002384186 0.82700002193451 0
# 23 texture coordinates

o Platonic
usemtl Mat
f 1/3/3 9/2/2 10/1/1
f 1/3/3 3/5/5 9/2/2
f 3/8/5 4/7/6 9/6/2
f 4/7/6 5/9/7 9/6/2
f 5/12/7 10/11/1 9/10/2
f 7/13/8 10/11/1 5/12/7
f 8/14/9 10/11/1 7/13/8
f 8/14/9 1/3/3 10/1/1
f 2/17/4 11/16/4 11/15/4
f 2/17/12 11/19/11 3/18/10
f 11/15/11 4/7/13 3/20/10
f 11/15/11 6/21/14 4/7/13
f 11/15/4 11/16/4 6/21/4
f 11/23/17 7/22/16 6/21/15
f 11/16/17 8/14/18 7/13/16
f 11/16/17 2/17/19 8/14/18
f 1/3/20 8/14/20 2/17/20
f 1/3/21 2/17/21 3/18/21
f 4/7/22 6/21/22 5/9/22
f 6/21/23 7/22/23 5/9/23

